<svg xmlns="http://www.w3.org/2000/svg" viewBox="0 0 160 160" role="img" aria-label="Aisha Khan">
  <circle cx="80" cy="80" r="76" fill="#0EA5E9" opacity="0.14"/>
  <circle cx="80" cy="80" r="74" fill="none" stroke="#0EA5E9" stroke-width="3" stroke-dasharray="3 7" stroke-linecap="round"/>
  <path d="M40 152 Q40 112 80 112 Q120 112 120 152 Z" fill="#0EA5E9" stroke="#2b2b2b" stroke-width="3" stroke-linejoin="round"/>
  <circle cx="80" cy="40" r="12" fill="#241a12" stroke="#2b2b2b" stroke-width="2.5"/>
  <circle cx="80" cy="72" r="32" fill="#a56b45" stroke="#2b2b2b" stroke-width="3"/>
  <path d="M49 74 A31 31 0 0 1 111 74 Q95 56 80 56 Q65 56 49 74 Z" fill="#241a12" stroke="#2b2b2b" stroke-width="2.5" stroke-linejoin="round"/>
  <circle cx="70" cy="72" r="3.4" fill="#141414"/>
  <circle cx="90" cy="72" r="3.4" fill="#141414"/>
  <path d="M67 86 Q80 96 93 86" fill="none" stroke="#141414" stroke-width="3" stroke-linecap="round"/>
  <path d="M96 96 l6 4 -2 -7 5 -5 -7 -1 -3 -6 -3 6 -7 1 5 5 -2 7 z" fill="#F5D90A" stroke="#2b2b2b" stroke-width="1.2" stroke-linejoin="round"/>
  <text x="80" y="150" text-anchor="middle" font-family="Verdana,Geneva,sans-serif" font-size="12" font-weight="700" fill="#ffffff">AK</text>
</svg>
