<svg xmlns="http://www.w3.org/2000/svg" viewBox="0 0 160 160" role="img" aria-label="Marcus Reid">
  <circle cx="80" cy="80" r="76" fill="#6366F1" opacity="0.14"/>
  <circle cx="80" cy="80" r="74" fill="none" stroke="#6366F1" stroke-width="3" stroke-dasharray="3 7" stroke-linecap="round"/>
  <path d="M40 152 Q40 112 80 112 Q120 112 120 152 Z" fill="#6366F1" stroke="#2b2b2b" stroke-width="3" stroke-linejoin="round"/>
  <circle cx="80" cy="72" r="32" fill="#c68642" stroke="#2b2b2b" stroke-width="3"/>
  <path d="M50 70 A30 30 0 0 1 110 70 Q94 60 80 60 Q66 60 50 70 Z" fill="#8a8f98" stroke="#2b2b2b" stroke-width="2.5" stroke-linejoin="round"/>
  <rect x="60" y="66" width="16" height="12" rx="3" fill="none" stroke="#141414" stroke-width="2.5"/>
  <rect x="84" y="66" width="16" height="12" rx="3" fill="none" stroke="#141414" stroke-width="2.5"/>
  <line x1="76" y1="72" x2="84" y2="72" stroke="#141414" stroke-width="2.5"/>
  <circle cx="68" cy="72" r="2.6" fill="#141414"/>
  <circle cx="92" cy="72" r="2.6" fill="#141414"/>
  <path d="M68 88 Q80 96 92 88" fill="none" stroke="#141414" stroke-width="3" stroke-linecap="round"/>
  <text x="80" y="150" text-anchor="middle" font-family="Verdana,Geneva,sans-serif" font-size="12" font-weight="700" fill="#ffffff">MR</text>
</svg>
